<mxfile host="app.diagrams.net" modified="2023-05-23T15:14:21.736Z" agent="Mozilla/5.0 (X11; Linux x86_64) AppleWebKit/537.36 (KHTML, like Gecko) Chrome/113.0.0.0 Safari/537.36" version="21.3.3" etag="EFuD7xqFpWkU-5lhAcsH" type="github">
  <diagram name="Page-1" id="bBzr1OB2mVCFML6Q6aQV">
    <mxGraphModel>
      <root>
        <mxCell id="0" />
        <mxCell id="1" parent="0" />
      </root>
    </mxGraphModel>
  </diagram>
</mxfile>
